<?xml version="1.0" encoding="utf-8"?>
<!-- Svg Vector Icons : http://www.onlinewebfonts.com/icon -->
<!DOCTYPE svg PUBLIC "-//W3C//DTD SVG 1.1//EN" "http://www.w3.org/Graphics/SVG/1.1/DTD/svg11.dtd">
<svg version="1.1" xmlns="http://www.w3.org/2000/svg" xmlns:xlink="http://www.w3.org/1999/xlink" x="0px" y="0px" viewBox="0 0 1000 1000" enable-background="new 0 0 1000 1000" xml:space="preserve">
<metadata> Svg Vector Icons : http://www.onlinewebfonts.com/icon </metadata>
<g><g transform="matrix(1 0 0 -1 0 480)"><path d="M500,470c-109.7,0-203.4-41.8-281.2-125.3S102.1,160.8,102.1,43.4v-522.2c0-14,6.4-23.6,19.1-28.7c3.8-1.3,7.7-1.9,11.5-1.9c8.9,0,16.6,3.2,23,9.6l114.8,128.2L362.3-496c5.1-8.9,13.1-13.4,23.9-13.4s18.8,3.8,23.9,11.5l91.8,122.4l88-122.4c6.4-7.7,14.7-11.5,24.9-11.5c10.2,0,18.5,3.8,24.9,11.5l91.8,126.2l112.9-128.2c8.9-10.2,20.1-12.8,33.5-7.7c13.4,5.1,20.1,14.7,20.1,28.7V43.4c0,117.3-38.9,217.7-116.7,301.3C703.4,428.2,609.7,470,500,470z M836.7-398.4l-84.2,95.6c-7.7,7.7-16.3,11.2-25.8,10.5c-9.6-0.6-16.9-4.8-22-12.4l-89.9-122.4l-88,120.5c-6.4,8.9-14.7,13.4-24.9,13.4c-10.2,0-18.5-3.8-24.9-11.5l-89.9-122.4l-88,122.4c-6.4,7.7-14,11.5-23,11.5h-1.9c-8.9,0-16.6-3.2-23-9.6l-88-97.6V43.4c0,100.7,32.8,186.8,98.5,258.2c65.7,71.4,145.1,107.1,238.1,107.1c93.1,0,172.5-35.7,238.1-107.1c65.7-71.4,98.5-157.5,98.5-258.2V-398.4z M653,133.3c-16.6,0-30.9-6.1-43-18.2c-12.1-12.1-18.2-26.5-18.2-43c0-16.6,6.1-30.9,18.2-43c12.1-12.1,26.5-18.2,43-18.2s30.9,6.1,43,18.2s18.2,26.5,18.2,43c0,16.6-6.1,30.9-18.2,43C683.9,127.3,669.6,133.3,653,133.3z M347,133.3c-16.6,0-30.9-6.1-43-18.2c-12.1-12.1-18.2-26.5-18.2-43c0-16.6,6.1-30.9,18.2-43s26.5-18.2,43-18.2c16.6,0,30.9,6.1,43,18.2s18.2,26.5,18.2,43c0,16.6-6.1,30.9-18.2,43C377.9,127.3,363.6,133.3,347,133.3z"/></g></g>
</svg>